<?xml version="1.0" encoding="utf-8"?>
<!-- Generator: Adobe Illustrator 22.0.1, SVG Export Plug-In . SVG Version: 6.00 Build 0)  -->
<svg version="1.1" id="Слой_1" xmlns="http://www.w3.org/2000/svg" xmlns:xlink="http://www.w3.org/1999/xlink" x="0px" y="0px"
	 viewBox="0 0 18 11.6" style="enable-background:new 0 0 18 11.6;" xml:space="preserve">
<style type="text/css">
	.st0{fill:#0FB299;}
</style>
<path id="_копия" class="st0" d="M0,9c0-0.2,0.1-0.4,0.2-0.5l8.3-8.3c0.3-0.3,0.7-0.3,1,0c0,0,0,0,0,0l8.3,8.3
	c0.3,0.3,0.3,0.7,0,1c0,0,0,0,0,0L16,11.4c-0.3,0.3-0.7,0.3-1,0c0,0,0,0,0,0L9,5.4l-5.9,5.9c-0.3,0.3-0.7,0.3-1,0c0,0,0,0,0,0
	L0.2,9.5C0.1,9.4,0,9.2,0,9z"/>
</svg>
