<?xml version="1.0" encoding="utf-8"?>
<!-- Generator: Adobe Illustrator 22.0.1, SVG Export Plug-In . SVG Version: 6.00 Build 0)  -->
<svg version="1.1" id="Layer_1" xmlns="http://www.w3.org/2000/svg" xmlns:xlink="http://www.w3.org/1999/xlink" x="0px" y="0px"
	 viewBox="0 0 43 27" style="enable-background:new 0 0 43 27;" xml:space="preserve">
<style type="text/css">
	.st0{fill:#FFFFFF;}
	.st1{fill:#BD0034;}
	.st2{fill:#1A237B;}
</style>
<g>
	<rect x="0" y="0" class="st0" width="43" height="27"/>
	<polygon class="st1" points="28.8,9.8 43,1.2 43,0 42,0 25.8,9.8 	"/>
	<polygon class="st1" points="28.1,17.8 43,26.7 43,24.9 31.1,17.8 	"/>
	<polygon class="st1" points="0,2.1 12.7,9.8 15.7,9.8 0,0.3 	"/>
	<polygon class="st1" points="15,17.8 0,26.8 0,27 2.7,27 18,17.8 	"/>
	<polygon class="st2" points="40.1,0 25,0 25,9.1 	"/>
	<polygon class="st2" points="18.4,0 3.4,0 18.4,9.1 	"/>
	<polygon class="st2" points="43,9.8 43,3.6 32.8,9.8 	"/>
	<polygon class="st2" points="43,23.9 43,17.8 32.8,17.8 	"/>
	<polygon class="st2" points="4.2,27 18.4,27 18.4,18.5 	"/>
	<polygon class="st2" points="25,27 39.2,27 25,18.5 	"/>
	<polygon class="st2" points="0,17.8 0,24.2 10.6,17.8 	"/>
	<polygon class="st2" points="0,9.8 10.6,9.8 0,3.3 	"/>
	<polygon class="st1" points="19.7,0 19.7,11.4 0,11.4 0,16.2 19.7,16.2 19.7,27 23.7,27 23.7,16.2 43,16.2 43,11.4 23.7,11.4 
		23.7,0 	"/>
</g>
</svg>
